<svg xmlns="http://www.w3.org/2000/svg" width="1440" height="900" viewBox="0 0 1440 900">
  <rect width="1440" height="900" fill="#f9fafb"/>
  <rect width="256" height="900" fill="#111827"/>
  <rect x="24" y="24" width="28" height="28" rx="7" fill="#3b82f6"/>
  <text x="62" y="43" font-family="system-ui,sans-serif" font-size="15" font-weight="600" fill="#ffffff">SupportAI</text>
  <text x="44" y="114" font-family="system-ui,sans-serif" font-size="14" fill="#9ca3af">Dashboard</text>
  <text x="44" y="154" font-family="system-ui,sans-serif" font-size="14" fill="#9ca3af">Analytics</text>
  <rect x="12" y="168" width="232" height="38" rx="8" fill="#2563eb"/>
  <text x="44" y="192" font-family="system-ui,sans-serif" font-size="14" font-weight="500" fill="#ffffff">Tickets</text>
  <text x="44" y="236" font-family="system-ui,sans-serif" font-size="14" fill="#9ca3af">Knowledge Base</text>

  <!-- Header -->
  <text x="284" y="60" font-family="system-ui,sans-serif" font-size="22" font-weight="700" fill="#111827">All Tickets</text>
  <text x="284" y="82" font-family="system-ui,sans-serif" font-size="13" fill="#6b7280">120 tickets</text>
  <rect x="1300" y="44" width="116" height="36" rx="10" fill="#2563eb"/>
  <text x="1330" y="67" font-family="system-ui,sans-serif" font-size="13" font-weight="500" fill="#ffffff">+ New Ticket</text>

  <!-- Filters -->
  <rect x="284" y="100" width="80" height="30" rx="8" fill="#111827"/>
  <text x="324" y="120" font-family="system-ui,sans-serif" font-size="13" font-weight="500" fill="#ffffff" text-anchor="middle">All</text>
  <rect x="374" y="100" width="56" height="30" rx="8" fill="#ffffff" stroke="#e5e7eb" stroke-width="1"/>
  <text x="402" y="120" font-family="system-ui,sans-serif" font-size="13" fill="#6b7280" text-anchor="middle">Open</text>
  <rect x="440" y="100" width="88" height="30" rx="8" fill="#ffffff" stroke="#e5e7eb" stroke-width="1"/>
  <text x="484" y="120" font-family="system-ui,sans-serif" font-size="13" fill="#6b7280" text-anchor="middle">In Progress</text>
  <rect x="538" y="100" width="78" height="30" rx="8" fill="#ffffff" stroke="#e5e7eb" stroke-width="1"/>
  <text x="577" y="120" font-family="system-ui,sans-serif" font-size="13" fill="#6b7280" text-anchor="middle">Resolved</text>
  <rect x="626" y="100" width="62" height="30" rx="8" fill="#ffffff" stroke="#e5e7eb" stroke-width="1"/>
  <text x="657" y="120" font-family="system-ui,sans-serif" font-size="13" fill="#6b7280" text-anchor="middle">Closed</text>
  <!-- Divider -->
  <rect x="700" y="110" width="1" height="12" fill="#e5e7eb"/>
  <rect x="712" y="100" width="80" height="30" rx="8" fill="#2563eb"/>
  <text x="752" y="120" font-family="system-ui,sans-serif" font-size="13" font-weight="500" fill="#ffffff" text-anchor="middle">Technical</text>
  <rect x="802" y="100" width="64" height="30" rx="8" fill="#ffffff" stroke="#e5e7eb" stroke-width="1"/>
  <text x="834" y="120" font-family="system-ui,sans-serif" font-size="13" fill="#6b7280" text-anchor="middle">Billing</text>
  <rect x="876" y="100" width="68" height="30" rx="8" fill="#ffffff" stroke="#e5e7eb" stroke-width="1"/>
  <text x="910" y="120" font-family="system-ui,sans-serif" font-size="13" fill="#6b7280" text-anchor="middle">Account</text>
  <rect x="954" y="100" width="68" height="30" rx="8" fill="#ffffff" stroke="#e5e7eb" stroke-width="1"/>
  <text x="988" y="120" font-family="system-ui,sans-serif" font-size="13" fill="#6b7280" text-anchor="middle">General</text>

  <!-- Table -->
  <rect x="284" y="148" width="1132" height="720" rx="14" fill="#ffffff" stroke="#f3f4f6" stroke-width="1"/>
  <!-- Table header -->
  <rect x="284" y="148" width="1132" height="40" rx="14" fill="#f9fafb"/>
  <rect x="284" y="172" width="1132" height="16" fill="#f9fafb"/>
  <text x="306" y="174" font-family="system-ui,sans-serif" font-size="11" font-weight="500" fill="#9ca3af" letter-spacing="0.5">TICKET</text>
  <text x="700" y="174" font-family="system-ui,sans-serif" font-size="11" font-weight="500" fill="#9ca3af" letter-spacing="0.5">CATEGORY</text>
  <text x="840" y="174" font-family="system-ui,sans-serif" font-size="11" font-weight="500" fill="#9ca3af" letter-spacing="0.5">STATUS</text>
  <text x="960" y="174" font-family="system-ui,sans-serif" font-size="11" font-weight="500" fill="#9ca3af" letter-spacing="0.5">PRIORITY</text>
  <text x="1080" y="174" font-family="system-ui,sans-serif" font-size="11" font-weight="500" fill="#9ca3af" letter-spacing="0.5">ASSIGNED</text>
  <text x="1260" y="174" font-family="system-ui,sans-serif" font-size="11" font-weight="500" fill="#9ca3af" letter-spacing="0.5">DATE</text>

  <!-- Row data -->
  <g>
    <rect x="284" y="188" width="1132" height="56" fill="#ffffff"/>
    <text x="306" y="212" font-family="system-ui,sans-serif" font-size="13" font-weight="500" fill="#111827">API rate limit exceeded in production</text>
    <text x="306" y="230" font-family="system-ui,sans-serif" font-size="11" fill="#9ca3af">Grace Kim · 3 messages</text>
    <rect x="692" y="204" width="84" height="20" rx="10" fill="#eff6ff"/>
    <text x="734" y="218" font-family="system-ui,sans-serif" font-size="11" fill="#2563eb" text-anchor="middle">Technical</text>
    <rect x="824" y="204" width="80" height="20" rx="10" fill="#fef3c7"/>
    <text x="864" y="218" font-family="system-ui,sans-serif" font-size="11" fill="#d97706" text-anchor="middle">In Progress</text>
    <rect x="944" y="204" width="62" height="20" rx="10" fill="#fee2e2"/>
    <text x="975" y="218" font-family="system-ui,sans-serif" font-size="11" fill="#dc2626" text-anchor="middle">Urgent</text>
    <text x="1080" y="218" font-family="system-ui,sans-serif" font-size="13" fill="#6b7280">Sarah Chen</text>
    <text x="1260" y="218" font-family="system-ui,sans-serif" font-size="13" fill="#9ca3af">4/4/2026</text>
    <rect x="284" y="244" width="1132" height="1" fill="#f9fafb"/>
  </g>
  <g>
    <rect x="284" y="245" width="1132" height="56" fill="#ffffff"/>
    <text x="306" y="269" font-family="system-ui,sans-serif" font-size="13" font-weight="500" fill="#111827">Subscription renewal failed - card declined</text>
    <text x="306" y="287" font-family="system-ui,sans-serif" font-size="11" fill="#9ca3af">Alice Johnson · 4 messages</text>
    <rect x="692" y="261" width="64" height="20" rx="10" fill="#f0fdf4"/>
    <text x="724" y="275" font-family="system-ui,sans-serif" font-size="11" fill="#16a34a" text-anchor="middle">Billing</text>
    <rect x="824" y="261" width="68" height="20" rx="10" fill="#dcfce7"/>
    <text x="858" y="275" font-family="system-ui,sans-serif" font-size="11" fill="#16a34a" text-anchor="middle">Resolved</text>
    <rect x="944" y="261" width="50" height="20" rx="10" fill="#fff7ed"/>
    <text x="969" y="275" font-family="system-ui,sans-serif" font-size="11" fill="#ea580c" text-anchor="middle">High</text>
    <text x="1080" y="275" font-family="system-ui,sans-serif" font-size="13" fill="#6b7280">Marcus Williams</text>
    <text x="1260" y="275" font-family="system-ui,sans-serif" font-size="13" fill="#9ca3af">4/3/2026</text>
    <rect x="284" y="301" width="1132" height="1" fill="#f9fafb"/>
  </g>
  <g>
    <rect x="284" y="302" width="1132" height="56" fill="#ffffff"/>
    <text x="306" y="326" font-family="system-ui,sans-serif" font-size="13" font-weight="500" fill="#111827">SSO integration not working with Okta</text>
    <text x="306" y="344" font-family="system-ui,sans-serif" font-size="11" fill="#9ca3af">Bob Smith · 5 messages</text>
    <rect x="692" y="318" width="84" height="20" rx="10" fill="#eff6ff"/>
    <text x="734" y="332" font-family="system-ui,sans-serif" font-size="11" fill="#2563eb" text-anchor="middle">Technical</text>
    <rect x="824" y="318" width="80" height="20" rx="10" fill="#fef3c7"/>
    <text x="864" y="332" font-family="system-ui,sans-serif" font-size="11" fill="#d97706" text-anchor="middle">In Progress</text>
    <rect x="944" y="318" width="50" height="20" rx="10" fill="#fff7ed"/>
    <text x="969" y="332" font-family="system-ui,sans-serif" font-size="11" fill="#ea580c" text-anchor="middle">High</text>
    <text x="1080" y="332" font-family="system-ui,sans-serif" font-size="13" fill="#6b7280">Sarah Chen</text>
    <text x="1260" y="332" font-family="system-ui,sans-serif" font-size="13" fill="#9ca3af">4/3/2026</text>
    <rect x="284" y="358" width="1132" height="1" fill="#f9fafb"/>
  </g>
  <g>
    <rect x="284" y="359" width="1132" height="56" fill="#ffffff"/>
    <text x="306" y="383" font-family="system-ui,sans-serif" font-size="13" font-weight="500" fill="#111827">Cannot login to my account after password change</text>
    <text x="306" y="401" font-family="system-ui,sans-serif" font-size="11" fill="#9ca3af">Emma Wilson · 2 messages</text>
    <rect x="692" y="375" width="68" height="20" rx="10" fill="#f0fdf4"/>
    <text x="726" y="389" font-family="system-ui,sans-serif" font-size="11" fill="#16a34a" text-anchor="middle">Account</text>
    <rect x="824" y="375" width="52" height="20" rx="10" fill="#eff6ff"/>
    <text x="850" y="389" font-family="system-ui,sans-serif" font-size="11" fill="#2563eb" text-anchor="middle">Open</text>
    <rect x="944" y="375" width="62" height="20" rx="10" fill="#fee2e2"/>
    <text x="975" y="389" font-family="system-ui,sans-serif" font-size="11" fill="#dc2626" text-anchor="middle">Urgent</text>
    <text x="1080" y="389" font-family="system-ui,sans-serif" font-size="13" fill="#9ca3af" font-style="italic">Unassigned</text>
    <text x="1260" y="389" font-family="system-ui,sans-serif" font-size="13" fill="#9ca3af">4/2/2026</text>
    <rect x="284" y="415" width="1132" height="1" fill="#f9fafb"/>
  </g>
  <g>
    <rect x="284" y="416" width="1132" height="56" fill="#ffffff"/>
    <text x="306" y="440" font-family="system-ui,sans-serif" font-size="13" font-weight="500" fill="#111827">Charged twice for the same invoice</text>
    <text x="306" y="458" font-family="system-ui,sans-serif" font-size="11" fill="#9ca3af">Frank Martinez · 3 messages</text>
    <rect x="692" y="432" width="64" height="20" rx="10" fill="#f0fdf4"/>
    <text x="724" y="446" font-family="system-ui,sans-serif" font-size="11" fill="#16a34a" text-anchor="middle">Billing</text>
    <rect x="824" y="432" width="68" height="20" rx="10" fill="#dcfce7"/>
    <text x="858" y="446" font-family="system-ui,sans-serif" font-size="11" fill="#16a34a" text-anchor="middle">Resolved</text>
    <rect x="944" y="432" width="50" height="20" rx="10" fill="#fff7ed"/>
    <text x="969" y="446" font-family="system-ui,sans-serif" font-size="11" fill="#ea580c" text-anchor="middle">High</text>
    <text x="1080" y="446" font-family="system-ui,sans-serif" font-size="13" fill="#6b7280">Priya Patel</text>
    <text x="1260" y="446" font-family="system-ui,sans-serif" font-size="13" fill="#9ca3af">4/1/2026</text>
    <rect x="284" y="472" width="1132" height="1" fill="#f9fafb"/>
  </g>
  <g>
    <rect x="284" y="473" width="1132" height="56" fill="#ffffff"/>
    <text x="306" y="497" font-family="system-ui,sans-serif" font-size="13" font-weight="500" fill="#111827">OAuth token refresh failing silently</text>
    <text x="306" y="515" font-family="system-ui,sans-serif" font-size="11" fill="#9ca3af">Henry Brown · 6 messages</text>
    <rect x="692" y="489" width="84" height="20" rx="10" fill="#eff6ff"/>
    <text x="734" y="503" font-family="system-ui,sans-serif" font-size="11" fill="#2563eb" text-anchor="middle">Technical</text>
    <rect x="824" y="489" width="80" height="20" rx="10" fill="#fef3c7"/>
    <text x="864" y="503" font-family="system-ui,sans-serif" font-size="11" fill="#d97706" text-anchor="middle">In Progress</text>
    <rect x="944" y="489" width="62" height="20" rx="10" fill="#fee2e2"/>
    <text x="975" y="503" font-family="system-ui,sans-serif" font-size="11" fill="#dc2626" text-anchor="middle">Urgent</text>
    <text x="1080" y="503" font-family="system-ui,sans-serif" font-size="13" fill="#6b7280">Marcus Williams</text>
    <text x="1260" y="503" font-family="system-ui,sans-serif" font-size="13" fill="#9ca3af">3/31/2026</text>
  </g>
</svg>
